<mxfile host="app.diagrams.net" agent="Mozilla/5.0 (Windows NT 10.0; Win64; x64) AppleWebKit/537.36 (KHTML, like Gecko) Chrome/131.0.0.0 Safari/537.36 OPR/116.0.0.0" version="26.0.13">
  <diagram name="Page-1" id="2Y28gFZliZygKqG8N708">
    <mxGraphModel dx="1620" dy="1907" grid="1" gridSize="10" guides="1" tooltips="1" connect="1" arrows="1" fold="1" page="1" pageScale="1" pageWidth="827" pageHeight="1169" math="0" shadow="0">
      <root>
        <mxCell id="0" />
        <mxCell id="1" parent="0" />
        <mxCell id="3jvZrl0rlmrnVYsdKxIE-1" value="" style="rounded=0;whiteSpace=wrap;html=1;align=left;fillColor=light-dark(#7595FF,var(--ge-dark-color, #121212));" vertex="1" parent="1">
          <mxGeometry x="50" y="-5" width="230" height="200" as="geometry" />
        </mxCell>
        <mxCell id="3jvZrl0rlmrnVYsdKxIE-2" value="&lt;font style=&quot;color: rgb(255, 255, 255);&quot;&gt;&lt;sup&gt;CSU&lt;br&gt;&lt;/sup&gt;&lt;/font&gt;&lt;span style=&quot;vertical-align: super; color: light-dark(rgb(255, 255, 255), rgb(18, 18, 18)); background-color: transparent;&quot;&gt;ACQ_vidSetElecConCfgPerMode&lt;/span&gt;" style="ellipse;whiteSpace=wrap;html=1;fillColor=light-dark(#7595FF,var(--ge-dark-color, #121212));strokeColor=light-dark(#000000,#FFFFFF);" vertex="1" parent="1">
          <mxGeometry x="460" y="65" width="220" height="60" as="geometry" />
        </mxCell>
        <mxCell id="3jvZrl0rlmrnVYsdKxIE-3" value="ACQ_strExchDat" style="rounded=0;whiteSpace=wrap;html=1;" vertex="1" parent="1">
          <mxGeometry x="107.5" y="50" width="115" height="40" as="geometry" />
        </mxCell>
        <mxCell id="3jvZrl0rlmrnVYsdKxIE-4" value="&lt;font style=&quot;color: rgb(255, 255, 255);&quot;&gt;Internal Data&lt;/font&gt;" style="text;strokeColor=none;align=center;fillColor=none;html=1;verticalAlign=middle;whiteSpace=wrap;rounded=0;" vertex="1" parent="1">
          <mxGeometry x="95" y="10" width="140" height="30" as="geometry" />
        </mxCell>
        <mxCell id="3jvZrl0rlmrnVYsdKxIE-5" value="" style="endArrow=classic;startArrow=classic;html=1;rounded=0;exitX=1;exitY=0.5;exitDx=0;exitDy=0;entryX=0;entryY=0.5;entryDx=0;entryDy=0;" edge="1" parent="1" source="3jvZrl0rlmrnVYsdKxIE-3" target="3jvZrl0rlmrnVYsdKxIE-2">
          <mxGeometry width="50" height="50" relative="1" as="geometry">
            <mxPoint x="380" y="30" as="sourcePoint" />
            <mxPoint x="430" y="-20" as="targetPoint" />
          </mxGeometry>
        </mxCell>
        <mxCell id="3jvZrl0rlmrnVYsdKxIE-12" value="ACQ_strTask.strEcg.strElecConDat" style="rounded=0;whiteSpace=wrap;html=1;" vertex="1" parent="1">
          <mxGeometry x="70" y="110" width="190" height="40" as="geometry" />
        </mxCell>
        <mxCell id="3jvZrl0rlmrnVYsdKxIE-13" value="" style="endArrow=classic;startArrow=classic;html=1;rounded=0;exitX=1;exitY=0.5;exitDx=0;exitDy=0;entryX=0;entryY=0.5;entryDx=0;entryDy=0;" edge="1" parent="1" source="3jvZrl0rlmrnVYsdKxIE-12" target="3jvZrl0rlmrnVYsdKxIE-2">
          <mxGeometry width="50" height="50" relative="1" as="geometry">
            <mxPoint x="233" y="80" as="sourcePoint" />
            <mxPoint x="470" y="105" as="targetPoint" />
          </mxGeometry>
        </mxCell>
        <mxCell id="3jvZrl0rlmrnVYsdKxIE-14" value="&lt;font style=&quot;color: rgb(0, 0, 0);&quot;&gt;bLeadOffSign&lt;/font&gt;&lt;div&gt;&lt;font style=&quot;color: rgb(0, 0, 0);&quot;&gt;u16ElectBitMask&lt;br&gt;u16LeadBitMask&lt;/font&gt;&lt;/div&gt;" style="text;strokeColor=none;align=center;fillColor=none;html=1;verticalAlign=middle;whiteSpace=wrap;rounded=0;" vertex="1" parent="1">
          <mxGeometry x="310" y="35" width="140" height="30" as="geometry" />
        </mxCell>
      </root>
    </mxGraphModel>
  </diagram>
</mxfile>
